PathFileType	4	(X/Y/Z)	C:\Users\WrightLab\Desktop\Jo\P1_boxCal4.trc
DataRate	CameraRate	NumFrames	NumMarkers	Units	OrigDataRate	OrigDataStartFrame	OrigNumFrames
100.00	100.00	      20	19	mm	100.00	603	      1205
Frame#	Time	Headset_Front			Headset_Back			Headset_Left			Headset_Right			Left_Shoulder			Right_Shoulder			Sternum			C7			Left Elbow			Right Elbow			Left Wrist			Right Wrist			Left ASIS			Right ASIS			S2			Left Knee			Right Knee			Left Ankle			Right Ankle			
		X1	Y1	Z1	X2	Y2	Z2	X3	Y3	Z3	X4	Y4	Z4	X5	Y5	Z5	X6	Y6	Z6	X7	Y7	Z7	X8	Y8	Z8	X9	Y9	Z9	X10	Y10	Z10	X11	Y11	Z11	X12	Y12	Z12	X13	Y13	Z13	X14	Y14	Z14	X15	Y15	Z15	X16	Y16	Z16	X17	Y17	Z17	X18	Y18	Z18	X19	Y19	Z19	

603	6.020										-438.85138	837.71313	1934.66821																-429.88571	133.12543	2447.47363	-439.66983	510.09369	2474.69531				-479.83008	501.18161	2120.75586				-296.71527	189.33621	2121.80591	-571.79639	951.15546	2167.55396	-369.23273	143.66098	2451.77759	-257.94443	963.71808	2279.35547				
604	6.030							-355.99521	970.17987	2482.94995	-432.95291	837.64862	1937.93860																-429.84521	133.05275	2447.63892	-443.42352	509.24948	2474.49683				-476.06430	502.79877	2120.73877				-299.99774	183.31825	2135.77832	-570.41583	951.22736	2166.92041	-369.73056	143.93248	2452.14111	-259.51871	964.05444	2286.32471				
605	6.040										-427.29355	838.50696	1940.59485	-356.91873	1074.68567	2010.03748													-429.93896	132.79932	2447.48804	-446.98416	509.27734	2475.56323				-471.94684	502.93341	2124.85010				-303.71616	180.67004	2140.79199	-569.10657	951.61621	2166.36133	-369.81146	143.74165	2451.98413	-261.41364	964.66608	2293.43799				
606	6.050										-421.41071	839.33704	1941.83984	-352.45822	1075.59949	2014.67944													-430.44504	133.03699	2448.29370	-450.81430	508.98074	2476.14819				-467.29880	502.91388	2128.07324				-307.02289	174.51361	2154.85742	-568.50531	951.81598	2165.73267	-370.72333	144.80168	2453.28857							
607	6.060										-415.58698	837.71564	1951.71411	-347.03210	1076.24597	2020.23779													-430.92273	133.33496	2449.15332	-454.80405	508.81091	2476.45166				-462.44150	502.41211	2133.32031				-310.88257	169.74634	2164.89478	-567.95557	952.09668	2164.86841	-371.93176	146.20818	2454.98730							
608	6.070							-568.91443	918.16101	2312.23828	-409.77603	838.24072	1953.04529	-341.96429	1076.34485	2025.76270													-430.68399	131.62958	2449.01831	-458.73566	509.76523	2477.81128				-457.81549	502.93576	2137.61694				-314.53329	165.17308	2174.66675				-372.20447	146.26131	2455.24829							
609	6.080										-404.06076	839.20544	1955.61169	-337.04276	1076.59229	2030.06580													-430.86133	131.14233	2448.73730	-462.68164	510.36368	2477.95264				-453.23413	502.96533	2140.92358				-318.21790	162.41898	2179.65918				-372.68106	146.48468	2455.99121	-568.74316	918.62677	2308.83350				
610	6.090							-271.17606	967.50848	2325.49146	-398.17102	839.46802	1960.44043	-332.00836	1076.80420	2036.57593													-432.05453	131.67862	2451.34912	-467.27145	510.43518	2478.78784				-448.54224	503.14755	2145.75977				-322.42108	157.28833	2192.20898	-565.12292	953.41724	2159.65332	-374.24069	148.46054	2458.38501							
611	6.100										-392.38171	839.61493	1964.22925	-327.38025	1077.68921	2041.37549													-432.07571	131.47565	2451.39502							-443.80121	503.71677	2148.84741				-326.89658	154.07890	2199.61646				-375.29800	148.98335	2459.75195	-273.94452	967.04449	2329.59131				
612	6.110							-277.33795	967.13708	2334.15405	-386.36075	840.66339	1966.42322	-322.93860	1077.93811	2047.26282													-432.13345	131.18520	2451.37622							-439.36722	503.68951	2152.34229				-331.66882	152.32881	2205.50537				-376.93710	149.95816	2462.09619							
613	6.120										-380.80267	841.57568	1969.16553	-318.70245	1078.29089	2050.95459													-432.50809	131.30566	2452.34888	-279.85159	968.22107	2338.88550				-435.89713	505.67261	2152.88037				-336.24121	149.65291	2211.69507				-377.74219	150.26744	2462.51514	-566.68915	844.73376	2638.75269				
614	6.130							-282.42221	968.65808	2343.74683	-373.04596	840.97162	1972.78284	-314.42429	1078.84521	2056.09375	-566.47607	845.76367	2634.13184																-405.20667	189.64354	2510.64209	-432.68417	506.63287	2154.41943				-341.38400	150.90535	2211.69116													
615	6.140							-284.89001	969.71497	2348.31543	-367.11505	841.29492	1977.47217	-310.37674	1079.44861	2061.76929													-381.89838	153.75410	2467.49414	-434.17834	134.33093	2455.11768				-429.97458	506.85745	2159.47168				-347.04086	149.29462	2218.56348													
616	6.150							-287.40240	970.29633	2352.76563	-362.03815	842.24561	1980.96643	-306.56244	1079.84607	2065.37939	-383.12286	154.55588	2468.57446																-434.23627	133.37523	2456.15234	-427.52441	505.95474	2163.86011				-351.45856	149.67828	2220.94238													
617	6.160							-289.95511	970.37860	2356.92139	-357.40100	842.64087	1984.00659	-303.11804	1080.20569	2070.26709													-621.45422	957.80750	2346.33032	-384.86185	156.57472	2470.58105				-426.10333	506.92233	2163.68726				-352.57584	150.21712	2220.60474				-434.95294	133.45587	2457.97681							
618	6.170							-292.45038	970.99597	2360.87573	-351.24625	842.77899	1987.96265	-299.28433	1081.29736	2073.72070	-622.60870	958.79651	2343.17920																-386.96036	159.02403	2473.55908	-424.94241	508.02322	2162.15918				-353.12091	150.21118	2221.33398				-436.43451	135.34723	2460.72876							
619	6.180							-295.15399	971.03442	2365.13037	-346.37683	842.75299	1992.86938	-295.42804	1081.87354	2077.36304													-624.33008	959.72607	2339.69043	-388.95135	160.60722	2476.69458				-423.97211	508.79868	2162.57129				-354.04495	151.14426	2219.72339				-436.92514	135.19751	2461.48535							
620	6.190							-297.80386	971.62457	2368.93481	-341.16214	843.24231	1996.27417	-292.33868	1082.38953	2080.76978	-625.56464	960.35730	2336.62646																-390.33344	161.92302	2478.08569	-422.92984	509.36472	2161.21167				-354.91699	150.38490	2220.90503				-437.80603	135.66365	2462.54102							
621	6.200							-300.58969	971.32843	2373.12158	-336.78314	843.77991	2000.28357	-288.90738	1082.65784	2084.24585													-626.94080	961.18774	2333.53296	-392.24234	164.07713	2480.62427				-421.11157	507.50406	2166.44312				-356.20898	148.18217	2221.47876				-439.04807	136.44698	2464.48926							
622	6.210							-303.00146	970.79401	2375.55835	-332.05661	844.13672	2002.39990	-285.23303	1083.26880	2087.91357													-628.91974	961.70490	2330.33569	-393.97275	166.03796	2482.08911				-419.01102	508.45969	2163.70459				-357.19269	147.02780	2221.21143				-439.13626	136.15808	2464.37817							
